<svg id="visual" viewBox="0 0 900 100" width="900" height="100" xmlns="http://www.w3.org/2000/svg" xmlns:xlink="http://www.w3.org/1999/xlink" version="1.1"><path d="M0 51L6.8 53.5C13.7 56 27.3 61 41 64.5C54.7 68 68.3 70 82 61.3C95.7 52.7 109.3 33.3 123 28.7C136.7 24 150.3 34 164 33.3C177.7 32.7 191.3 21.3 204.8 19.7C218.3 18 231.7 26 245.2 27.7C258.7 29.3 272.3 24.7 286 21C299.7 17.3 313.3 14.7 327 18.2C340.7 21.7 354.3 31.3 368 36.7C381.7 42 395.3 43 409 41.7C422.7 40.3 436.3 36.7 450 30.2C463.7 23.7 477.3 14.3 491 13.2C504.7 12 518.3 19 532 29C545.7 39 559.3 52 573 55C586.7 58 600.3 51 614 41.2C627.7 31.3 641.3 18.7 654.8 19.7C668.3 20.7 681.7 35.3 695.2 39.7C708.7 44 722.3 38 736 35.2C749.7 32.3 763.3 32.7 777 34.5C790.7 36.3 804.3 39.7 818 39.2C831.7 38.7 845.3 34.3 859 29.3C872.7 24.3 886.3 18.7 893.2 15.8L900 13L900 101L893.2 101C886.3 101 872.7 101 859 101C845.3 101 831.7 101 818 101C804.3 101 790.7 101 777 101C763.3 101 749.7 101 736 101C722.3 101 708.7 101 695.2 101C681.7 101 668.3 101 654.8 101C641.3 101 627.7 101 614 101C600.3 101 586.7 101 573 101C559.3 101 545.7 101 532 101C518.3 101 504.7 101 491 101C477.3 101 463.7 101 450 101C436.3 101 422.7 101 409 101C395.3 101 381.7 101 368 101C354.3 101 340.7 101 327 101C313.3 101 299.7 101 286 101C272.3 101 258.7 101 245.2 101C231.7 101 218.3 101 204.8 101C191.3 101 177.7 101 164 101C150.3 101 136.7 101 123 101C109.3 101 95.7 101 82 101C68.3 101 54.7 101 41 101C27.3 101 13.7 101 6.8 101L0 101Z" fill="#8c7ae6"></path><path d="M0 48L6.8 47.7C13.7 47.3 27.3 46.7 41 43C54.7 39.3 68.3 32.7 82 31.8C95.7 31 109.3 36 123 44.3C136.7 52.7 150.3 64.3 164 70.5C177.7 76.7 191.3 77.3 204.8 71C218.3 64.7 231.7 51.3 245.2 46.5C258.7 41.7 272.3 45.3 286 48.7C299.7 52 313.3 55 327 58.8C340.7 62.7 354.3 67.3 368 61C381.7 54.7 395.3 37.3 409 31.7C422.7 26 436.3 32 450 41.2C463.7 50.3 477.3 62.7 491 62.8C504.7 63 518.3 51 532 45.2C545.7 39.3 559.3 39.7 573 44.8C586.7 50 600.3 60 614 59C627.7 58 641.3 46 654.8 42.3C668.3 38.7 681.7 43.3 695.2 49.8C708.7 56.3 722.3 64.7 736 69.5C749.7 74.3 763.3 75.7 777 69.8C790.7 64 804.3 51 818 41.7C831.7 32.3 845.3 26.7 859 23.7C872.7 20.7 886.3 20.3 893.2 20.2L900 20L900 101L893.2 101C886.3 101 872.7 101 859 101C845.3 101 831.7 101 818 101C804.3 101 790.7 101 777 101C763.3 101 749.7 101 736 101C722.3 101 708.7 101 695.2 101C681.7 101 668.3 101 654.8 101C641.3 101 627.7 101 614 101C600.3 101 586.7 101 573 101C559.3 101 545.7 101 532 101C518.3 101 504.7 101 491 101C477.3 101 463.7 101 450 101C436.3 101 422.7 101 409 101C395.3 101 381.7 101 368 101C354.3 101 340.7 101 327 101C313.3 101 299.7 101 286 101C272.3 101 258.7 101 245.2 101C231.7 101 218.3 101 204.8 101C191.3 101 177.7 101 164 101C150.3 101 136.7 101 123 101C109.3 101 95.7 101 82 101C68.3 101 54.7 101 41 101C27.3 101 13.7 101 6.8 101L0 101Z" fill="#896ee0"></path><path d="M0 51L6.8 54.5C13.7 58 27.3 65 41 69.8C54.7 74.7 68.3 77.3 82 74.3C95.7 71.3 109.3 62.7 123 59C136.7 55.3 150.3 56.7 164 57.5C177.7 58.3 191.3 58.7 204.8 57.3C218.3 56 231.7 53 245.2 56.5C258.7 60 272.3 70 286 69.8C299.7 69.7 313.3 59.3 327 57.8C340.7 56.3 354.3 63.7 368 63C381.7 62.3 395.3 53.7 409 50.2C422.7 46.7 436.3 48.3 450 50.8C463.7 53.3 477.3 56.7 491 56.2C504.7 55.7 518.3 51.3 532 50.2C545.7 49 559.3 51 573 55C586.7 59 600.3 65 614 62.8C627.7 60.7 641.3 50.3 654.8 46.3C668.3 42.3 681.7 44.7 695.2 45.8C708.7 47 722.3 47 736 46.2C749.7 45.3 763.3 43.7 777 48.3C790.7 53 804.3 64 818 69.2C831.7 74.3 845.3 73.7 859 69C872.7 64.3 886.3 55.7 893.2 51.3L900 47L900 101L893.2 101C886.3 101 872.7 101 859 101C845.3 101 831.7 101 818 101C804.3 101 790.7 101 777 101C763.3 101 749.7 101 736 101C722.3 101 708.7 101 695.2 101C681.7 101 668.3 101 654.8 101C641.3 101 627.7 101 614 101C600.3 101 586.7 101 573 101C559.3 101 545.7 101 532 101C518.3 101 504.7 101 491 101C477.3 101 463.7 101 450 101C436.3 101 422.7 101 409 101C395.3 101 381.7 101 368 101C354.3 101 340.7 101 327 101C313.3 101 299.7 101 286 101C272.3 101 258.7 101 245.2 101C231.7 101 218.3 101 204.8 101C191.3 101 177.7 101 164 101C150.3 101 136.7 101 123 101C109.3 101 95.7 101 82 101C68.3 101 54.7 101 41 101C27.3 101 13.7 101 6.8 101L0 101Z" fill="#8761d9"></path><path d="M0 76L6.8 75.2C13.7 74.3 27.3 72.7 41 73.3C54.7 74 68.3 77 82 76.3C95.7 75.7 109.3 71.3 123 67.2C136.7 63 150.3 59 164 62C177.7 65 191.3 75 204.8 75.3C218.3 75.7 231.7 66.3 245.2 65.8C258.7 65.3 272.3 73.7 286 74.8C299.7 76 313.3 70 327 71.2C340.7 72.3 354.3 80.7 368 82C381.7 83.3 395.3 77.7 409 75.8C422.7 74 436.3 76 450 76C463.7 76 477.3 74 491 76C504.7 78 518.3 84 532 86.7C545.7 89.3 559.3 88.7 573 88.5C586.7 88.3 600.3 88.7 614 83.2C627.7 77.7 641.3 66.3 654.8 65.2C668.3 64 681.7 73 695.2 75.8C708.7 78.7 722.3 75.3 736 73.2C749.7 71 763.3 70 777 67.3C790.7 64.7 804.3 60.3 818 62.7C831.7 65 845.3 74 859 75.2C872.7 76.3 886.3 69.7 893.2 66.3L900 63L900 101L893.2 101C886.3 101 872.7 101 859 101C845.3 101 831.7 101 818 101C804.3 101 790.7 101 777 101C763.3 101 749.7 101 736 101C722.3 101 708.7 101 695.2 101C681.7 101 668.3 101 654.8 101C641.3 101 627.7 101 614 101C600.3 101 586.7 101 573 101C559.3 101 545.7 101 532 101C518.3 101 504.7 101 491 101C477.3 101 463.7 101 450 101C436.3 101 422.7 101 409 101C395.3 101 381.7 101 368 101C354.3 101 340.7 101 327 101C313.3 101 299.7 101 286 101C272.3 101 258.7 101 245.2 101C231.7 101 218.3 101 204.8 101C191.3 101 177.7 101 164 101C150.3 101 136.7 101 123 101C109.3 101 95.7 101 82 101C68.3 101 54.7 101 41 101C27.3 101 13.7 101 6.8 101L0 101Z" fill="#8654d2"></path><path d="M0 97L6.8 95.3C13.7 93.7 27.3 90.3 41 90.2C54.7 90 68.3 93 82 92.7C95.7 92.3 109.3 88.7 123 86.7C136.7 84.7 150.3 84.3 164 84.7C177.7 85 191.3 86 204.8 86.2C218.3 86.3 231.7 85.7 245.2 83.3C258.7 81 272.3 77 286 74.3C299.7 71.7 313.3 70.3 327 73.8C340.7 77.3 354.3 85.7 368 86.5C381.7 87.3 395.3 80.7 409 79C422.7 77.3 436.3 80.7 450 81.5C463.7 82.3 477.3 80.7 491 81.8C504.7 83 518.3 87 532 86.8C545.7 86.7 559.3 82.3 573 81.5C586.7 80.7 600.3 83.3 614 85.7C627.7 88 641.3 90 654.8 88.3C668.3 86.7 681.7 81.3 695.2 78.3C708.7 75.3 722.3 74.7 736 76.8C749.7 79 763.3 84 777 86.2C790.7 88.3 804.3 87.7 818 86C831.7 84.3 845.3 81.7 859 80C872.7 78.3 886.3 77.7 893.2 77.3L900 77L900 101L893.2 101C886.3 101 872.7 101 859 101C845.3 101 831.7 101 818 101C804.3 101 790.7 101 777 101C763.3 101 749.7 101 736 101C722.3 101 708.7 101 695.2 101C681.7 101 668.3 101 654.8 101C641.3 101 627.7 101 614 101C600.3 101 586.7 101 573 101C559.3 101 545.7 101 532 101C518.3 101 504.7 101 491 101C477.3 101 463.7 101 450 101C436.3 101 422.7 101 409 101C395.3 101 381.7 101 368 101C354.3 101 340.7 101 327 101C313.3 101 299.7 101 286 101C272.3 101 258.7 101 245.2 101C231.7 101 218.3 101 204.8 101C191.3 101 177.7 101 164 101C150.3 101 136.7 101 123 101C109.3 101 95.7 101 82 101C68.3 101 54.7 101 41 101C27.3 101 13.7 101 6.8 101L0 101Z" fill="#8545ca"></path></svg>